<svg xmlns="http://www.w3.org/2000/svg" viewBox="0 0 60 60" id="Mail"><path d="M14 14c-3.307 0-6 2.693-6 6v20c0 3.307 2.693 6 6 6h32c3.307 0 6-2.693 6-6V20c0-3.307-2.693-6-6-6H14zm0 2h32c2.233 0 4 1.767 4 4v20c0 2.233-1.767 4-4 4H14a3.97 3.97 0 0 1-4-4V20c0-2.233 1.767-4 4-4z" color="#000" style="font-feature-settings:normal;font-variant-alternates:normal;font-variant-caps:normal;font-variant-east-asian:normal;font-variant-ligatures:normal;font-variant-numeric:normal;font-variant-position:normal;font-variation-settings:normal;inline-size:0;isolation:auto;mix-blend-mode:normal;shape-margin:0;shape-padding:0;text-decoration-color:#000;text-decoration-line:none;text-decoration-style:solid;text-indent:0;text-orientation:mixed;text-transform:none" fill="#faf7f7" class="color000000 svgShape"></path><path d="M15.029 20a1 1 0 0 0-.736.293 1 1 0 0 0 0 1.414l12 12c2.039 2.04 5.375 2.04 7.414 0l12-12a1 1 0 0 0 0-1.414 1 1 0 0 0-1.414 0l-12 12a3.228 3.228 0 0 1-4.586 0l-12-12a1 1 0 0 0-.678-.293z" color="#000" style="font-feature-settings:normal;font-variant-alternates:normal;font-variant-caps:normal;font-variant-east-asian:normal;font-variant-ligatures:normal;font-variant-numeric:normal;font-variant-position:normal;font-variation-settings:normal;inline-size:0;isolation:auto;mix-blend-mode:normal;shape-margin:0;shape-padding:0;text-decoration-color:#000;text-decoration-line:none;text-decoration-style:solid;text-indent:0;text-orientation:mixed;text-transform:none" fill="#faf7f7" class="color000000 svgShape"></path></svg>