<svg xmlns="http://www.w3.org/2000/svg" viewBox="0 0 128 128" id="resume"><path fill="#FFF" d="M26.5 4h75c4.1 0 7.5 3.4 7.5 7.5v105c0 4.1-3.4 7.5-7.5 7.5h-75c-4.1 0-7.5-3.4-7.5-7.5v-105C19 7.4 22.4 4 26.5 4z"></path><path fill="#FFF" d="M51.8 109.5H33.9c-1.3 0-2.4-1.1-2.4-2.4V89.2c0-1.3 1.1-2.4 2.4-2.4h17.9c1.3 0 2.4 1.1 2.4 2.4v17.9c0 1.3-1.1 2.4-2.4 2.4z"></path><path fill="#6A576D" d="M101.5 125h-75c-4.7 0-8.5-3.8-8.5-8.5v-105C18 6.8 21.8 3 26.5 3h75c4.7 0 8.5 3.8 8.5 8.5v105c0 4.7-3.8 8.5-8.5 8.5zM26.5 5C22.9 5 20 7.9 20 11.5v105c0 3.6 2.9 6.5 6.5 6.5h75c3.6 0 6.5-2.9 6.5-6.5v-105c0-3.6-2.9-6.5-6.5-6.5h-75z"></path><path fill="#82CFCD" d="M51.8 41.3H33.9c-1.3 0-2.4-1.1-2.4-2.4v-18c0-1.3 1.1-2.4 2.4-2.4h17.9c1.3 0 2.4 1.1 2.4 2.4v17.9c0 1.4-1.1 2.5-2.4 2.5z"></path><path fill="#6A576D" d="M51.8 42.3H33.9c-1.9 0-3.4-1.5-3.4-3.4v-18c0-1.9 1.5-3.4 3.4-3.4h17.9c1.9 0 3.4 1.5 3.4 3.4v17.9c0 1.9-1.5 3.5-3.4 3.5zM33.9 19.5c-.8 0-1.4.6-1.4 1.4v17.9c0 .8.6 1.4 1.4 1.4h17.9c.8 0 1.4-.6 1.4-1.4V20.9c0-.8-.6-1.4-1.4-1.4H33.9z"></path><path fill="#82CFCD" d="M51.8 75.4H33.9c-1.3 0-2.4-1.1-2.4-2.4V55c0-1.3 1.1-2.4 2.4-2.4h17.9c1.3 0 2.4 1.1 2.4 2.4v18c0 1.3-1.1 2.4-2.4 2.4z"></path><path fill="#6A576D" d="M51.8 76.4H33.9c-1.9 0-3.4-1.5-3.4-3.4V55c0-1.9 1.5-3.4 3.4-3.4h17.9c1.9 0 3.4 1.5 3.4 3.4v18c0 1.8-1.5 3.4-3.4 3.4zM33.9 53.6c-.8 0-1.4.6-1.4 1.4v18c0 .8.6 1.4 1.4 1.4h17.9c.8 0 1.4-.6 1.4-1.4V55c0-.8-.6-1.4-1.4-1.4H33.9zm17.9 56.9H33.9c-1.9 0-3.4-1.5-3.4-3.4V89.2c0-1.9 1.5-3.4 3.4-3.4h17.9c1.9 0 3.4 1.5 3.4 3.4v17.9c0 1.9-1.5 3.4-3.4 3.4zM33.9 87.7c-.8 0-1.4.6-1.4 1.4V107c0 .8.6 1.4 1.4 1.4h17.9c.8 0 1.4-.6 1.4-1.4V89.2c0-.8-.6-1.4-1.4-1.4H33.9zm17.9-45.4H33.9c-1.9 0-3.4-1.5-3.4-3.4v-18c0-1.9 1.5-3.4 3.4-3.4h17.9c1.9 0 3.4 1.5 3.4 3.4v17.9c0 1.9-1.5 3.5-3.4 3.5zM33.9 19.5c-.8 0-1.4.6-1.4 1.4v17.9c0 .8.6 1.4 1.4 1.4h17.9c.8 0 1.4-.6 1.4-1.4V20.9c0-.8-.6-1.4-1.4-1.4H33.9z"></path><path fill="#6A576D" d="M51.8 76.4H33.9c-1.9 0-3.4-1.5-3.4-3.4V55c0-1.9 1.5-3.4 3.4-3.4h17.9c1.9 0 3.4 1.5 3.4 3.4v18c0 1.8-1.5 3.4-3.4 3.4zM33.9 53.6c-.8 0-1.4.6-1.4 1.4v18c0 .8.6 1.4 1.4 1.4h17.9c.8 0 1.4-.6 1.4-1.4V55c0-.8-.6-1.4-1.4-1.4H33.9zm17.9 56.9H33.9c-1.9 0-3.4-1.5-3.4-3.4V89.2c0-1.9 1.5-3.4 3.4-3.4h17.9c1.9 0 3.4 1.5 3.4 3.4v17.9c0 1.9-1.5 3.4-3.4 3.4zM33.9 87.7c-.8 0-1.4.6-1.4 1.4V107c0 .8.6 1.4 1.4 1.4h17.9c.8 0 1.4-.6 1.4-1.4V89.2c0-.8-.6-1.4-1.4-1.4H33.9zM96 30.9H68.5c-.6 0-1-.4-1-1s.4-1 1-1H96c.6 0 1 .4 1 1s-.4 1-1 1zM96 65H68.5c-.6 0-1-.4-1-1s.4-1 1-1H96c.6 0 1 .4 1 1s-.4 1-1 1zM95.8 99.1H68.3c-.6 0-1-.4-1-1s.4-1 1-1h27.5c.6 0 1 .4 1 1s-.5 1-1 1z"></path></svg>