<svg xmlns="http://www.w3.org/2000/svg" data-name="Layer 1" viewBox="0 0 64 64" id="suitcase"><path d="M58 12.5H47v-2a6 6 0 0 0-6-6H23a6 6 0 0 0-6 6v2H6a5.88 5.88 0 0 0-6 5.74v35.52a5.88 5.88 0 0 0 6 5.74h52a5.88 5.88 0 0 0 6-5.74V45.5a2 2 0 0 0-4 0v8.26a1.89 1.89 0 0 1-2 1.74H6a1.89 1.89 0 0 1-2-1.74V32.1l26.45 7.06a6 6 0 0 0 3.1 0L60 32.1v5.4a2 2 0 0 0 4 0V18.24a5.88 5.88 0 0 0-6-5.74Zm-37-2a2 2 0 0 1 2-2h18a2 2 0 0 1 2 2v2H21Zm11.52 24.79a2 2 0 0 1-1 0L4 28v-9.76a1.89 1.89 0 0 1 2-1.74h52a1.89 1.89 0 0 1 2 1.74V28Z"></path><circle cx="54" cy="49.5" r="2"></circle><path d="M10 47.5a2 2 0 0 0 0 4h9a2 2 0 0 0 0-4Z"></path></svg>