<svg xmlns="http://www.w3.org/2000/svg" width="24" height="24" fill="none" id="cmd"><path fill="#000" fill-rule="evenodd" d="M22 18a3 3 0 0 1-3 3H5a3 3 0 0 1-3-3V6a3 3 0 0 1 3-3h14a3 3 0 0 1 3 3v12ZM20 6a1 1 0 0 0-1-1H5a1 1 0 0 0-1 1v12a1 1 0 0 0 1 1h14a1 1 0 0 0 1-1V6ZM5 7.25a1.25 1.25 0 1 1 2.5 0 1.25 1.25 0 0 1-2.5 0ZM10.25 6a1.25 1.25 0 1 0 0 2.5 1.25 1.25 0 0 0 0-2.5Zm-2.957 5.293a1 1 0 0 0 0 1.414L8.586 14l-1.293 1.293a1 1 0 1 0 1.414 1.414l2-2a1 1 0 0 0 0-1.414l-2-2a1 1 0 0 0-1.414 0ZM16 15a1 1 0 1 1 0 2h-3a1 1 0 1 1 0-2h3Z" clip-rule="evenodd"></path></svg>